<?xml version="1.0" encoding="UTF-8"?>
<svg id="Layer_1" data-name="Layer 1" xmlns="http://www.w3.org/2000/svg" version="1.1" viewBox="0 0 1000 300">
  <defs>
    <style>
      .cls-1 {
        fill: #010101;
      }

      .cls-1, .cls-2, .cls-3, .cls-4, .cls-5 {
        stroke-width: 0px;
      }

      .cls-2 {
        fill: #233e98;
      }

      .cls-3 {
        fill: #000;
      }

      .cls-4 {
        fill: #f6931e;
      }

      .cls-5 {
        fill: #fff;
      }
    </style>
  </defs>
  <g>
    <path class="cls-4" d="M252.58,215.63c0-.88.46-1.32,1.38-1.32h14.19c2,0,3.72.57,5.14,1.7,1.42,1.14,2.13,2.51,2.13,4.11s-.71,3-2.13,4.2c1.42,1.13,2.13,2.51,2.13,4.11s-.71,2.98-2.13,4.11c-1.42,1.13-3.13,1.7-5.14,1.7h-14.19c-.92,0-1.38-.44-1.38-1.32v-17.31ZM256.73,222.62h11.42c.87,0,1.6-.24,2.21-.73.6-.48.91-1.07.91-1.77s-.3-1.28-.91-1.76c-.6-.49-1.34-.73-2.21-.73h-11.42v4.99ZM256.74,225.94v4.99s11.41,0,11.41,0c.87,0,1.6-.24,2.21-.73.6-.48.91-1.07.91-1.76s-.3-1.28-.91-1.77c-.6-.48-1.34-.73-2.21-.73h-11.41Z"/>
    <path class="cls-4" d="M295.83,232.93c0,.88-.46,1.32-1.38,1.32h-1.38c-.92,0-1.38-.44-1.38-1.32v-17.31c0-.88.46-1.32,1.38-1.32h1.38c.92,0,1.38.44,1.38,1.32v17.31Z"/>
    <path class="cls-4" d="M321.43,217.63h-7.96c-.92,0-1.38-.44-1.38-1.32v-.69c0-.88.46-1.32,1.38-1.32h20.08c.92,0,1.38.44,1.38,1.32v.69c0,.88-.46,1.32-1.38,1.32h-7.96v15.3c0,.88-.46,1.32-1.38,1.32h-1.38c-.92,0-1.38-.44-1.38-1.32v-15.3Z"/>
    <path class="cls-4" d="M372.65,214.31c.92,0,1.38.44,1.38,1.32v.69c0,.88-.46,1.32-1.38,1.32h-14.19c-.87,0-1.6.24-2.21.73-.6.48-.91,1.07-.91,1.76v8.31c0,.69.3,1.28.91,1.76.6.49,1.34.73,2.21.73h14.19c.92,0,1.38.44,1.38,1.32v.69c0,.88-.46,1.32-1.38,1.32h-14.19c-2,0-3.72-.57-5.14-1.7-1.42-1.14-2.13-2.51-2.13-4.11v-8.31c0-1.61.71-2.98,2.13-4.11,1.42-1.13,3.13-1.7,5.14-1.7h14.19Z"/>
    <path class="cls-4" d="M413.14,228.43c0,1.61-.71,2.98-2.13,4.11-1.42,1.13-3.13,1.7-5.14,1.7h-8.31c-2,0-3.72-.57-5.14-1.7-1.42-1.14-2.13-2.51-2.13-4.11v-8.31c0-1.61.71-2.98,2.13-4.11,1.42-1.13,3.13-1.7,5.14-1.7h8.31c2,0,3.72.57,5.14,1.7,1.42,1.14,2.13,2.51,2.13,4.11v8.31ZM394.45,228.43c0,.69.3,1.28.91,1.76.6.49,1.34.73,2.21.73h8.31c.87,0,1.6-.24,2.21-.73.6-.48.91-1.07.91-1.76v-8.31c0-.69-.3-1.28-.91-1.76-.6-.49-1.34-.73-2.21-.73h-8.31c-.87,0-1.6.24-2.21.73-.6.48-.91,1.07-.91,1.76v8.31Z"/>
    <path class="cls-4" d="M433.55,232.93c0,.88-.46,1.32-1.38,1.32h-1.38c-.92,0-1.38-.44-1.38-1.32v-17.31c0-.88.46-1.32,1.38-1.32h1.38c.92,0,1.38.44,1.38,1.32v17.31Z"/>
    <path class="cls-4" d="M449.82,215.39s-.01-.07-.01-.12c0-.64.46-.96,1.38-.96h1.38c.34,0,.89.38,1.65,1.14l14.28,13.17v-12.99c0-.88.46-1.32,1.38-1.32h1.38c.92,0,1.38.44,1.38,1.32v17.29c0,.89-.46,1.33-1.38,1.33h-1.38c-.34,0-.89-.38-1.65-1.14l-14.28-13.44v13.26c0,.88-.46,1.32-1.38,1.32h-1.38c-.92,0-1.38-.44-1.38-1.32v-17.31c0-.09,0-.17.01-.24Z"/>
    <path class="cls-4" d="M529.74,214.31c2,0,3.72.57,5.14,1.7,1.42,1.14,2.13,2.51,2.13,4.11s-.71,2.98-2.13,4.11c-1.42,1.14-3.13,1.7-5.14,1.7h-11.41v6.99c-.01.88-.48,1.32-1.4,1.32h-1.38c-.92,0-1.38-.44-1.38-1.32v-17.31c0-.88.46-1.32,1.38-1.32h14.19ZM518.31,222.62h11.42c.87,0,1.6-.24,2.21-.73s.91-1.07.91-1.77-.3-1.28-.91-1.76c-.6-.49-1.34-.73-2.21-.73h-11.42v4.99Z"/>
    <path class="cls-4" d="M576.11,228.43c0,1.61-.71,2.98-2.13,4.11-1.42,1.13-3.13,1.7-5.14,1.7h-8.31c-2,0-3.71-.57-5.14-1.7-1.42-1.14-2.13-2.51-2.13-4.11v-8.31c0-1.61.71-2.98,2.13-4.11,1.42-1.13,3.13-1.7,5.14-1.7h8.31c2,0,3.72.57,5.14,1.7,1.42,1.14,2.13,2.51,2.13,4.11v8.31ZM557.42,228.43c0,.69.3,1.28.91,1.76.6.49,1.34.73,2.21.73h8.31c.87,0,1.6-.24,2.21-.73.6-.48.91-1.07.91-1.76v-8.31c0-.69-.3-1.28-.91-1.76-.6-.49-1.34-.73-2.21-.73h-8.31c-.87,0-1.6.24-2.21.73-.6.48-.91,1.07-.91,1.76v8.31Z"/>
    <path class="cls-4" d="M596.52,227.35v5.58c0,.88-.46,1.32-1.38,1.32h-1.38c-.92,0-1.38-.44-1.38-1.32v-17.31c0-.88.46-1.32,1.38-1.32h1.38c.92,0,1.38.44,1.38,1.32v5.58l14.04-6.16c.97-.49,1.72-.73,2.24-.73h1.04c.92,0,1.38.44,1.38,1.32,0,.56-.29.98-.87,1.26l-16.35,7.39,16.34,7.38c.58.29.87.71.87,1.26,0,.89-.46,1.33-1.38,1.33h-1.04c-.53,0-1.27-.25-2.24-.73l-14.03-6.16Z"/>
    <path class="cls-4" d="M631.47,220.13c0-1.61.71-2.98,2.13-4.11,1.42-1.13,3.13-1.7,5.14-1.7h14.19c.92,0,1.38.44,1.38,1.32v.69c0,.88-.46,1.32-1.38,1.32h-14.19c-.87,0-1.6.24-2.21.73-.6.48-.91,1.07-.91,1.76v2.49h14.54c.92,0,1.38.44,1.38,1.32v.69c0,.88-.46,1.32-1.38,1.32h-14.54v2.49c0,.69.3,1.28.91,1.76.6.49,1.34.73,2.21.73h14.19c.92,0,1.38.44,1.38,1.32v.69c0,.88-.46,1.32-1.38,1.32h-14.19c-2,0-3.71-.57-5.14-1.7-1.42-1.14-2.13-2.51-2.13-4.11v-8.31Z"/>
    <path class="cls-4" d="M681.19,225.94h-6.45v6.99c-.01.88-.48,1.32-1.4,1.32h-1.38c-.92,0-1.38-.44-1.38-1.32v-17.31c0-.88.46-1.32,1.38-1.32h14.19c2,0,3.72.57,5.14,1.7,1.42,1.14,2.13,2.51,2.13,4.11s-.71,2.98-2.13,4.11c-1.42,1.14-3.13,1.7-5.14,1.7h.22l6.27,5.77c.52.52.78.92.78,1.2,0,.89-.46,1.33-1.38,1.33h-1.04c-.57,0-1.24-.38-1.99-1.14l-7.81-7.17ZM674.72,222.62h11.42c.87,0,1.6-.24,2.21-.73s.91-1.07.91-1.77-.3-1.28-.91-1.76c-.6-.49-1.34-.73-2.21-.73h-11.42v4.99Z"/>
    <path class="cls-4" d="M744.27,217.63h-7.96c-.92,0-1.38-.44-1.38-1.32v-.69c0-.88.46-1.32,1.38-1.32h20.08c.92,0,1.38.44,1.38,1.32v.69c0,.88-.46,1.32-1.38,1.32h-7.96v15.3c0,.88-.46,1.32-1.38,1.32h-1.38c-.92,0-1.38-.44-1.38-1.32v-15.3Z"/>
    <path class="cls-4" d="M796.87,228.43c0,1.61-.71,2.98-2.13,4.11-1.42,1.13-3.13,1.7-5.14,1.7h-8.31c-2,0-3.71-.57-5.14-1.7-1.42-1.14-2.13-2.51-2.13-4.11v-8.31c0-1.61.71-2.98,2.13-4.11,1.42-1.13,3.13-1.7,5.14-1.7h8.31c2,0,3.72.57,5.14,1.7,1.42,1.14,2.13,2.51,2.13,4.11v8.31ZM778.18,228.43c0,.69.3,1.28.91,1.76.6.49,1.34.73,2.21.73h8.31c.87,0,1.6-.24,2.21-.73.6-.48.91-1.07.91-1.76v-8.31c0-.69-.3-1.28-.91-1.76-.6-.49-1.34-.73-2.21-.73h-8.31c-.87,0-1.6.24-2.21.73-.6.48-.91,1.07-.91,1.76v8.31Z"/>
    <path class="cls-4" d="M813.13,215.63c0-.88.46-1.32,1.38-1.32h1.38c.92,0,1.38.44,1.38,1.32v12.81c0,.69.3,1.28.91,1.76.6.49,1.34.73,2.21.73h8.31c.87,0,1.6-.24,2.21-.73.6-.48.91-1.07.91-1.76v-12.81c0-.88.46-1.32,1.38-1.32h1.38c.92,0,1.38.44,1.38,1.32v12.81c0,1.61-.71,2.98-2.13,4.11-1.42,1.13-3.13,1.7-5.14,1.7h-8.31c-2,0-3.71-.57-5.14-1.7-1.42-1.14-2.13-2.51-2.13-4.11v-12.81Z"/>
    <path class="cls-4" d="M862.85,225.94h-6.45v6.99c-.01.88-.48,1.32-1.4,1.32h-1.38c-.92,0-1.38-.44-1.38-1.32v-17.31c0-.88.46-1.32,1.38-1.32h14.19c2,0,3.72.57,5.14,1.7,1.42,1.14,2.13,2.51,2.13,4.11s-.71,2.98-2.13,4.11c-1.42,1.14-3.13,1.7-5.14,1.7h.22l6.27,5.77c.52.52.78.92.78,1.2,0,.89-.46,1.33-1.38,1.33h-1.04c-.57,0-1.24-.38-1.99-1.14l-7.81-7.17ZM856.39,222.62h11.42c.87,0,1.6-.24,2.21-.73s.91-1.07.91-1.77-.3-1.28-.91-1.76c-.6-.49-1.34-.73-2.21-.73h-11.42v4.99Z"/>
  </g>
  <path class="cls-3" d="M399.96,118.04c3.89.6,6.88,2.69,8.98,6.29,2.1,3.59,2.39,7.48.9,11.67l-11.67,33.9c-.75,2.25-2.02,4.45-3.82,6.62-1.8,2.17-3.86,4.12-6.17,5.84-2.32,1.72-4.75,3.11-7.3,4.15-2.55,1.05-4.87,1.57-6.96,1.57h-120.33l24.24-70.27h122.12v.23ZM300.51,145.43l-4.26,12.35h73.63l4.26-12.35h-73.63Z"/>
  <path class="cls-3" d="M433.18,188.08l24.24-70.27h32.33l-24.24,70.27h-32.33Z"/>
  <path class="cls-3" d="M534.65,186.51c-1.8-1.04-3.26-2.43-4.38-4.15-1.12-1.72-1.83-3.67-2.13-5.84-.3-2.17-.08-4.38.67-6.62l17.73-52.08h32.55l-13.92,39.96h94.28l-10.33,30.31h-108.65c-2.1,0-4.04-.52-5.84-1.57Z"/>
  <path class="cls-3" d="M777.32,118.04h32.55l-3.37,9.65c-.75,2.25-2.02,4.45-3.82,6.62-1.8,2.17-3.85,4.12-6.17,5.84-2.32,1.72-4.75,3.11-7.3,4.15-2.55,1.05-4.86,1.57-6.96,1.57h-80.82l-14.59,42.2h-32.33l24.02-70.04h98.78Z"/>
  <path class="cls-3" d="M842.65,188.08l24.24-70.27h32.33l-24.24,70.27h-32.33Z"/>
  <g id="ralsar.tif">
    <g>
      <path class="cls-1" d="M129.64,252.12c-56.14.12-102.3-45.63-102.4-101.48-.11-57.71,45.21-103.35,102.73-103.45,55.85-.09,102.07,45.71,102.21,101.28.14,57.76-45.14,103.53-102.53,103.65ZM202.36,149.7c.06-40.21-32.43-72.72-72.67-72.73-40.04,0-72.56,32.35-72.67,72.31-.11,40.32,32.16,72.89,72.36,73.04,40.35.15,72.92-32.27,72.98-72.62ZM105.94,244.12c15.99,3.85,31.67,3.9,47.52-.03-1.63-6.03-3.17-11.74-4.6-17.07-6.56.6-12.86,1.63-19.16,1.62-6.35,0-12.7-1.03-19.16-1.63-1.47,5.48-2.99,11.14-4.59,17.1ZM148.71,72.85c1.61-6.01,3.14-11.72,4.73-17.65-15.93-3.88-31.63-3.9-47.51.01,1.63,6.02,3.18,11.77,4.76,17.63,12.79-3.03,25.31-3.05,38.02,0ZM72.5,95.02c-4.39-4.42-8.55-8.63-12.87-12.98-11.17,11.67-19.1,25.22-23.61,40.95,5.96,1.59,11.73,3.13,17.64,4.71,3.73-12.55,10.03-23.43,18.84-32.68ZM223.38,122.98c-4.55-15.77-12.45-29.33-23.34-40.62-4.48,4.36-8.76,8.52-13.08,12.72,8.8,9.31,15.11,20.18,18.78,32.64,5.98-1.61,11.75-3.16,17.64-4.74ZM199.82,217.19c11.15-11.59,19.05-25.15,23.55-40.88-6-1.6-11.76-3.14-17.64-4.71-3.73,12.6-10.05,23.47-18.91,32.76,4.33,4.28,8.55,8.44,12.99,12.83ZM72.57,204.36c-8.95-9.44-15.24-20.31-18.92-32.77-5.98,1.61-11.74,3.15-17.49,4.7,2.42,12.34,16.47,36.39,23.59,40.72,4.26-4.2,8.48-8.35,12.83-12.64Z"/>
      <path class="cls-5" d="M202.36,149.7c-.06,40.36-32.63,72.77-72.98,72.62-40.2-.15-72.47-32.72-72.36-73.04.11-39.96,32.63-72.32,72.67-72.31,40.24,0,72.72,32.52,72.67,72.73ZM129.56,215.08c35.9.12,65.4-29.12,65.56-64.97.16-36.48-28.98-65.7-65.69-65.88-35.45-.17-64.98,29.27-65.16,64.97-.18,36.27,29.04,65.76,65.29,65.87Z"/>
      <path class="cls-2" d="M105.94,244.12c1.6-5.97,3.12-11.62,4.59-17.1,6.46.59,12.81,1.62,19.16,1.63,6.3,0,12.59-1.02,19.16-1.62,1.44,5.33,2.98,11.04,4.6,17.07-15.84,3.93-31.53,3.88-47.52.03Z"/>
      <path class="cls-2" d="M148.71,72.85c-12.71-3.06-25.23-3.04-38.02,0-1.58-5.86-3.14-11.61-4.76-17.63,15.88-3.91,31.59-3.89,47.51-.01-1.59,5.93-3.12,11.64-4.73,17.65Z"/>
      <path class="cls-2" d="M72.5,95.02c-8.81,9.25-15.11,20.13-18.84,32.68-5.91-1.58-11.68-3.12-17.64-4.71,4.51-15.74,12.43-29.29,23.61-40.95,4.32,4.35,8.49,8.56,12.87,12.98Z"/>
      <path class="cls-2" d="M223.38,122.98c-5.89,1.58-11.66,3.13-17.64,4.74-3.67-12.46-9.98-23.33-18.78-32.64,4.32-4.2,8.6-8.36,13.08-12.72,10.89,11.29,18.79,24.86,23.34,40.62Z"/>
      <path class="cls-2" d="M199.82,217.19c-4.45-4.39-8.66-8.55-12.99-12.83,8.86-9.3,15.18-20.17,18.91-32.76,5.88,1.57,11.64,3.11,17.64,4.71-4.5,15.73-12.4,29.29-23.55,40.88Z"/>
      <path class="cls-2" d="M72.57,204.36c-4.35,4.29-8.57,8.45-12.83,12.64-7.11-4.33-21.17-28.38-23.59-40.72,5.75-1.54,11.51-3.09,17.49-4.7,3.68,12.46,9.97,23.34,18.92,32.77Z"/>
      <path class="cls-2" d="M129.56,215.08c-36.24-.12-65.47-29.6-65.29-65.87.18-35.71,29.7-65.15,65.16-64.97,36.71.18,65.84,29.4,65.69,65.88-.15,35.85-29.65,65.09-65.56,64.97ZM129.46,205.99c31.02.07,56.46-25.01,56.57-55.79.12-31.42-24.89-56.77-56.1-56.88-30.99-.11-56.53,25.08-56.57,55.79-.05,31.48,24.93,56.81,56.1,56.88Z"/>
      <path class="cls-1" d="M129.46,205.99c-31.17-.07-56.15-25.4-56.1-56.88.04-30.72,25.59-55.91,56.57-55.79,31.21.11,56.22,25.47,56.1,56.88-.11,30.78-25.55,55.87-56.57,55.79Z"/>
    </g>
  </g>
  <path class="cls-4" d="M151.51,151.69c.79.44,1.54.86,2.26,1.34,1.98,1.33,3.68,2.92,4.86,5.01,1.31,2.32,1.73,4.83,1.48,7.45-.38,3.91-1.61,7.55-3.81,10.82-2.36,3.5-5.7,5.53-9.79,6.39-2.85.6-5.73.63-8.61.42-2.42-.18-4.82-.53-7.2-.99-.37-.07-.35.16-.4.36-1.05,4.19-2.1,8.38-3.13,12.58-.08.33-.19.36-.5.29-2.43-.62-4.86-1.23-7.3-1.81-.31-.08-.35-.18-.28-.47,1.04-4.13,2.07-8.26,3.11-12.39.08-.33.05-.45-.31-.54-1.89-.47-3.78-.96-5.66-1.47-.28-.07-.37-.04-.45.26-1.03,4.17-2.07,8.34-3.11,12.51-.07.29-.14.4-.49.31-2.43-.62-4.86-1.22-7.3-1.82-.28-.07-.37-.14-.29-.46,1.06-4.23,2.11-8.46,3.17-12.68.07-.3,0-.37-.27-.44-5.16-1.36-10.35-2.62-15.53-3.91-.32-.08-.32-.17-.21-.43,1.24-2.84,2.48-5.69,3.7-8.54.12-.27.23-.33.53-.25,1.73.46,3.46.89,5.2,1.32.47.12.95.21,1.44.17,1.26-.11,2.29-.99,2.59-2.23,1.42-5.69,2.84-11.37,4.26-17.06,1.55-6.2,3.09-12.41,4.64-18.61.42-1.7-.34-3.49-1.9-4.4-.97-.57-2.05-.82-3.12-1.09-1.39-.34-2.78-.67-4.17-.98-.27-.06-.31-.16-.25-.42.67-2.64,1.32-5.27,1.97-7.92.07-.28.16-.35.45-.28,3.47.88,6.95,1.71,10.4,2.62,1.71.45,3.43.82,5.13,1.26.33.08.4-.02.47-.3,1.02-4.12,2.05-8.24,3.07-12.36.12-.5.12-.5.64-.37,2.4.6,4.79,1.2,7.19,1.79.3.07.33.19.26.46-1.02,4.07-2.03,8.14-3.06,12.21-.08.31-.04.42.29.5,1.91.43,3.82.88,5.73,1.35.3.07.37,0,.44-.27,1.01-4.06,2.03-8.12,3.03-12.18.07-.28.15-.36.44-.28,2.46.62,4.91,1.23,7.37,1.83.3.07.32.19.25.45-1.04,4.13-2.07,8.26-3.1,12.39-.12.49-.12.49.36.66,3.24,1.15,6.38,2.5,9.22,4.48,1.91,1.32,3.58,2.89,4.81,4.88,1.57,2.55,2.07,5.32,1.75,8.27-.23,2.08-.72,4.08-1.65,5.97-1.71,3.44-4.51,5.5-8.17,6.48-.15.04-.32.04-.48.17ZM133.4,171.57c1.52,0,3.2-.14,4.83-.66,4.27-1.35,6.47-5.91,4.8-9.95-.67-1.63-1.85-2.84-3.24-3.87-2.13-1.56-4.53-2.56-7.01-3.4-3.16-1.07-6.42-1.74-9.66-2.5-.28-.07-.25.12-.29.25-1.43,5.72-2.85,11.44-4.29,17.16-.07.26.02.31.23.37,2.31.59,4.61,1.22,6.94,1.7,2.48.51,4.97.87,7.67.91ZM136.89,145.19c1.24.01,2.46-.1,3.66-.39,3.74-.91,6.01-4.31,5.41-8.13-.28-1.83-1.26-3.24-2.64-4.41-1.71-1.45-3.73-2.35-5.82-3.1-2.71-.97-5.52-1.53-8.31-2.19-.27-.06-.29.1-.33.27-1.28,5.15-2.56,10.31-3.86,15.46-.07.27,0,.34.25.4.98.24,1.94.52,2.92.76,2.86.72,5.74,1.31,8.71,1.33Z"/>
  <path class="cls-3" d="M282.1,105.47l10.33-30.3h104.39c2.09,0,4.04.53,5.84,1.57,1.8,1.05,3.26,2.43,4.38,4.15,1.12,1.72,1.83,3.67,2.13,5.84.3,2.17.07,4.38-.67,6.62l-4.27,12.12h-122.12Z"/>
  <polygon class="cls-3" points="420.39 75.16 555.98 75.16 545.65 105.47 410.06 105.47 420.39 75.16"/>
  <path class="cls-3" d="M555.08,93.35c.75-2.25,2.02-4.45,3.82-6.62,1.8-2.17,3.85-4.11,6.17-5.84,2.32-1.72,4.75-3.1,7.3-4.15,2.54-1.05,4.86-1.57,6.96-1.57h108.65l-10.33,30.3h-126.84l4.27-12.12Z"/>
  <path class="cls-3" d="M693.36,75.16h113.14c2.09,0,4.04.53,5.84,1.57,1.8,1.05,3.26,2.43,4.38,4.15,1.12,1.72,1.83,3.67,2.13,5.84.3,2.17.07,4.38-.67,6.62l-4.27,12.12h-130.88l10.33-30.3Z"/>
  <polygon class="cls-3" points="829.85 75.16 965.45 75.16 955.12 105.47 819.53 105.47 829.85 75.16"/>
  <circle class="cls-5" cx="85.81" cy="73.48" r="4.44"/>
  <circle class="cls-5" cx="173.69" cy="74.48" r="4.44"/>
  <circle class="cls-5" cx="216.71" cy="149.65" r="4.44"/>
  <circle class="cls-5" cx="42.46" cy="149.65" r="4.44"/>
  <circle class="cls-5" cx="85.81" cy="224.61" r="4.44"/>
  <circle class="cls-5" cx="174.69" cy="224.61" r="4.44"/>
</svg>